<?xml version="1.0" encoding="UTF-8"?>
<svg id="Layer_1" xmlns="http://www.w3.org/2000/svg" version="1.1" viewBox="0 0 173.4 254.8">
  <!-- Generator: Adobe Illustrator 29.4.0, SVG Export Plug-In . SVG Version: 2.1.0 Build 152)  -->
  <defs>
    <style>
      .st0 {
        fill: none;
      }

      .st1 {
        fill: #221f1f;
      }
    </style>
  </defs>
  <path class="st1" d="M90,81.2c0,.4,0,.8,0,1.2v30.8h0s.7-.7.7-.7c3.1-3,4.1-4.6,8.9-5,.8,0,1.5.6,1.6,1.4,0,.4,0,.9,0,1.3,0,.4,0,.9-.2,1.3-.3,1.7-.9,3.2-1.7,4.7-.8,1.4-1.9,2.7-3.1,3.8-1.2,1.1-2.6,2-4.1,2.8-.7.3-1.3.6-2,.9v8.6h52.5v-63.7c0-9.5-5.2-18.4-12.4-24.6L91.9,9.3c-1.1-1-2.5-1.5-4-1.5s-2.9.5-4,1.5l-38.6,34.7c-7.4,6.2-12.8,15.2-12.8,24.8v63.6h51.9v-18.5c-1.7-.8-3.3-1.8-4.8-3-1.3-1.1-2.4-2.3-3.2-3.8-.9-1.4-1.5-3-1.9-4.6-.3-1.3-.5-2.7-.6-4,0-.8.6-1.3,1.3-1.5.8-.2,1.7.2,2.4.5,1.6.7,3,1.8,4.1,3.2.5.6,1,1.3,1.5,2,.2.4.5.7.7,1.1.1.2.2.3.3.5,0,.1.2.3.2.4v-13.6c0-2.3,0-4.6,0-6.9,0-.8,0-1.7,0-2.5,0-.2,0-.4-.2-.4-.2,0-.4-.1-.6-.2-.6-.2-1.1-.3-1.7-.4-.6-.2-1.1-.4-1.7-.6-1.5-.6-3-1.5-4.2-2.6-.9-.8-1.7-1.7-2.5-2.6-1.1-1.3-1.7-2.7-2.4-4.3-.4-.9-.7-1.9-1-2.8-.6-2-.9-4-1.1-6.1-.2-3,0-6.1.5-9.1.2-1,1.5-1.5,2.3-.9,2.8,2,5.7,3.9,8.5,5.9,1.8-2.9,3.5-5.8,5.3-8.6.7-1.1,2-.9,2.7,0,2,2.7,4,5.4,6,8.1,2.6-1.8,5.2-3.5,7.9-5.3.7-.5,1.4-.2,2,.3.3.3.3.6.4,1,0,.5.1.9.2,1.4.1.9.2,1.9.2,2.8,0,1.6,0,3.1,0,4.7,0,1.5-.3,3.1-.6,4.6-.3,1.5-.7,2.9-1.2,4.3-.5,1.3-1.1,2.6-1.9,3.8-.8,1.2-1.7,2.2-2.7,3.1-1.1.9-2.3,1.7-3.6,2.3-.7.3-1.4.6-2.1.8-.9.2-1.8.3-2.6.6-.1,0-.3,0-.4.1M94.2,2.3l42.1,39.2c7.9,6.7,12.5,16.6,12.5,27.1v63.7h21.9c2.1,0,2.8,2,2.8,2.9s-.6,3.1-2.8,3.1h-21.9v55.5c-1.6,37-28,61-61.2,61s-60-23-61.2-61v-55.5H2.8c-2.2,0-2.8-2.2-2.8-3.1s.5-2.9,2.8-2.9h23.6v-63.6c0-10.6,4.6-20.5,12.7-27.3L81.6,2.3c3.7-3.1,9-3.1,12.6,0M84.4,184.1v-11.2c-2.8,5-6.2,9.7-12.4,10.2-.8,0-1.5-.7-1.6-1.5,0-.9,0-1.8.2-2.6.3-1.6.8-3.2,1.5-4.7.7-1.4,1.6-2.8,2.7-3.9,1.1-1.2,2.3-2.2,3.7-3.1,1.4-.9,2.9-1.7,4.4-2.4.5-.2.9-.4,1.4-.6v-26h-51.9v55.8c2.4,31.9,23.8,54.4,55.1,54.4s52.2-24.3,54.9-54.4v-55.8h-52.5v25.9c8.3,2.6,14,8.8,13.5,17.9,0,.8-.7,1.4-1.5,1.5-.8.1-1.7-.2-2.5-.5-1.6-.6-3-1.6-4.2-2.8-1.2-1.3-2.3-2.7-3.2-4.2-.7-1.2-1.4-2.5-2.1-3.7v12.8c0,0,1.1.4,1.2.5.4.2.8.3,1.2.5.8.3,1.5.7,2.3,1.1,1.5.7,2.9,1.6,4.3,2.5,1.3.9,2.6,1.9,3.7,3,1.1,1.1,2.1,2.3,3,3.5.9,1.3,1.6,2.7,2.2,4.1.6,1.5,1,3.1,1.2,4.7.1.9.2,1.7.2,2.6,0,.4,0,.9,0,1.3,0,.5,0,.9-.4,1.3-.1.1-.2.2-.4.3-.9.5-1.9.1-2.8,0-.8-.2-1.7-.5-2.5-.9-1.5-.7-3-1.6-4.3-2.7-1.3-1.1-2.5-2.3-3.5-3.7-1.1-1.4-2-2.9-2.9-4.4-.9-1.6-1.6-3.2-2.3-4.8,0,0,0,0,0-.1v14.2c0,0,.1.2.1.3,0,.1.1.3.2.4.1.2.2.5.3.7.2.5.4,1,.6,1.4.4.9.8,1.9,1.1,2.8.6,1.8,1.2,3.7,1.5,5.5.3,1.8.5,3.6.4,5.4,0,1.8-.4,3.5-1,5.2-.6,1.8-1.5,3.5-2.5,5.1-.5.7-1,1.4-1.6,2.1-.5.6-1,1.4-1.9,1.4-.5,0-.9-.2-1.2-.6-.3-.4-.7-.8-1-1.3-.6-.9-1.2-1.7-1.8-2.7-1-1.7-1.8-3.6-2.3-5.5-.5-1.8-.8-3.7-.8-5.6,0-1.9.2-3.8.5-5.7.4-1.9,1-3.8,1.8-5.7.5-1.2,1.3-2.4,1.9-3.6v-12.8c-3.6,7.6-9,14-18.1,14.8-.6,0-1.1-.2-1.4-.8-.2-.5-.2-1-.2-1.5,0-.5,0-.9.1-1.3,0-.9.2-1.7.4-2.6.4-1.6.9-3.2,1.7-4.7.7-1.4,1.6-2.8,2.6-4.1,1-1.3,2.2-2.4,3.4-3.5,1.3-1.1,2.6-2.1,4-3,1.4-.9,2.9-1.7,4.5-2.4.4-.2.9-.4,1.3-.6.3-.1.6-.3.9-.3,0,0,.7-.1.7-.2v-1.1Z"/>
  <rect class="st0" x="-22.8" y="-11.3" width="225.4" height="288"/>
</svg>