<?xml version="1.0" encoding="UTF-8"?>
<svg id="Layer_1" xmlns="http://www.w3.org/2000/svg" version="1.1" viewBox="0 0 390.9 108.5">
  <!-- Generator: Adobe Illustrator 29.4.0, SVG Export Plug-In . SVG Version: 2.1.0 Build 152)  -->
  <defs>
    <style>
      .st0, .st1 {
        fill: #404040;
      }

      .st2 {
        fill: none;
        stroke: #333;
        stroke-width: .2px;
      }

      .st1 {
        stroke: #404041;
        stroke-width: .8px;
      }
    </style>
  </defs>
  <g id="ps-logo">
    <g id="Group_3763">
      <path id="Path_14290" class="st0" d="M62.2,46.9c.4.6,1.1,1.1,1.9,1.2,1.5.3,2.9.4,4.4.3.1,0,.2.1.2.3s0,.3-.2.3c-1.6,0-2.8,0-3.6,0h-5c0,0-3.8,0-3.8,0-.7,0-1.7,0-2.9,0s-.1-.1-.1-.3,0-.3.1-.3c1.1,0,2.1,0,3.2-.3.6-.1,1.1-.5,1.4-1.1.3-.8.4-1.7.4-2.5v-26.4c0-.9,0-1.7-.4-2.5-.3-.6-.8-1-1.4-1.1-1-.3-2.1-.4-3.2-.3,0,0-.1-.1-.1-.3s0-.3.1-.3h2.9c1.6.1,2.9.2,3.8.2s1.9,0,3.2-.2c3-.1,4.6-.2,4.8-.2,3-.1,5.9.7,8.3,2.3,2.1,1.6,3.2,3.9,3.2,7.1,0,2.3-.6,4.5-1.9,6.3-1.2,1.7-2.8,3-4.7,3.8-1.9.8-3.9,1.3-6,1.3-.9,0-1.9,0-2.8-.3-.1,0-.2,0-.2-.3,0-.1,0-.2,0-.3,0-.1.1-.2.2-.1.7.2,1.4.2,2.1.2,2.4,0,4.6-.8,6.4-2.5,1.7-1.6,2.6-4,2.6-7.1.1-2.6-.7-5.1-2.4-7.1-1.6-1.7-3.9-2.7-6.3-2.6-1,0-2,0-3,.2-.6.1-1.1.5-1.3,1.1-.3.9-.4,1.8-.4,2.8v26c0,.9.1,1.8.5,2.7Z"/>
      <path id="Path_14291" class="st0" d="M95.1,44.2c0,.8,0,1.6.3,2.3.3.5.7.9,1.3,1,1,.2,2,.3,3,.3h6.2c1.9,0,3.8-.6,5.2-2,1.4-1.5,2.3-3.5,2.5-5.6,0,0,0-.1.2-.1.1,0,.2,0,.3,0,0,0,.1,0,.1.2-.4,2.6-.6,5.2-.6,7.8,0,.2,0,.5-.2.7-.2.2-.4.2-.7.2h-26.4c0,0-.1-.1-.1-.3s0-.3.1-.3c1.1,0,2.1,0,3.2-.3.6-.1,1.1-.5,1.3-1.1.3-.8.4-1.7.3-2.5v-26.4c0-.9,0-1.7-.3-2.5-.3-.6-.7-1-1.3-1.1-1-.3-2.1-.4-3.2-.3,0,0-.1-.1-.1-.3s0-.3.1-.3h2.8c1.6.1,2.9.2,3.9.2s2.4,0,4-.1h2.7c.1,0,.2,0,.2.3s0,.3-.2.3c-1.1,0-2.1,0-3.1.3-.6.1-1.1.6-1.4,1.1-.3.8-.4,1.7-.3,2.5v26.1Z"/>
      <path id="Path_14292" class="st0" d="M157.8,48.7c0,.2,0,.3-.3.3-.8,0-1.9,0-3.3-.1-1.5,0-2.6-.1-3.2-.1s-1.9,0-3.2.1c-1.3,0-2.2.1-2.9.1s-.2-.1-.2-.3,0-.3.2-.3c1,0,2.1,0,3.1-.4.6-.2,1-.7,1-1.4,0-.9-.3-1.7-.7-2.5l-6.6-14h-10.7l-4.9,11.6c-.5,1-.7,2.1-.8,3.2,0,2.2,1.9,3.4,5.6,3.4.2,0,.3.1.3.3s0,.3-.3.3c-.7,0-1.6,0-2.9-.1-1.4,0-2.7-.1-3.9-.1s-2.1,0-3.4.1c-1.1,0-2.1.1-2.9.1s-.3-.1-.3-.3c0-.2,0-.3.3-.3.9,0,1.9-.2,2.7-.6.9-.5,1.6-1.2,2.1-2.1.9-1.4,1.6-2.8,2.2-4.4l12-28.4c0,0,.2-.1.4-.1s.3,0,.4.1l13.4,28.3c.7,1.5,1.5,3,2.4,4.4.5.8,1.2,1.5,1.9,2.1.7.4,1.4.6,2.2.6.2,0,.3,0,.3.3ZM141.1,29l-5.1-10.8-4.6,10.8h9.6Z"/>
      <path id="Path_14293" class="st0" d="M200.9,13.8c0,.2,0,.3-.2.3-1.3-.1-2.6.4-3.5,1.3-.8,1.2-1.2,2.7-1.1,4.2v30c0,.1,0,.2-.3.2-.1,0-.3,0-.4,0l-26.3-31.7-.5-.6v25.3c-.1,1.5.2,3,1,4.2.9.9,2.1,1.4,3.4,1.3.1,0,.2.1.2.3s0,.3-.2.3c-1,0-1.7,0-2.2,0h-2.9c0,0-2.9,0-2.9,0-.5,0-1.3,0-2.3,0-.1,0-.2-.1-.2-.3s0-.3.2-.3c1.3.1,2.6-.3,3.5-1.3.8-1.3,1.2-2.8,1-4.2v-26.7c-.7-.7-1.4-1.2-2.3-1.6-.7-.3-1.5-.5-2.2-.5-.1,0-.2-.1-.2-.3s0-.3.2-.3h2.1c.4,0,1,.1,1.9.1s1.5,0,2.1,0c.4,0,.8,0,1.3,0,.2,0,.4,0,.6.2.3.3.5.6.7.9.4.7.8,1.3,1.3,1.9l22,26.9v-23.7c.1-1.5-.2-3-1-4.2-.8-.9-2.1-1.4-3.3-1.3,0,0-.1-.1-.1-.3s0-.3.1-.3h2.2c1.1.1,2.1.2,2.8.2s1.6,0,2.8-.1h2.3c.1,0,.2,0,.2.2Z"/>
      <path id="Path_14294" class="st0" d="M210.3,16.3c-1.2,1.2-2,3.3-2.5,6.2,0,0-.2.1-.4.1s-.3,0-.3-.2c.2-1,.3-2.7.5-5,.2-2.3.3-4.1.3-5.3,0-.2.1-.3.3-.3s.3,0,.3.3c0,.8,1,1.3,3,1.3,3.2.1,7,.2,11.5.2,2.3,0,4.7,0,7.2-.1h3.8c1,0,2-.1,3-.3.6-.1,1.1-.6,1.3-1.1,0-.1.2-.2.3-.2.2,0,.3,0,.3.2-.1,1.1-.2,2.7-.3,5,0,2.3-.2,4.1-.2,5.4s0,.2-.3.2-.3,0-.4-.2c-.1-2.9-.7-5-1.8-6.2-1.1-1.2-2.9-1.8-5.5-1.8-1.2,0-2.4,0-3.6.2-.6,0-1.2.4-1.5,1-.3.8-.5,1.7-.4,2.5v26.3c0,.9,0,1.7.4,2.6.3.6.9,1,1.5,1.1,1.2.2,2.4.3,3.6.3.1,0,.2.1.2.3s0,.3-.2.3c-1.3,0-2.3,0-3,0h-4.4c0,0-4.3,0-4.3,0-.8,0-1.8,0-3.1,0s-.1-.1-.1-.3,0-.3.1-.3c1.2,0,2.4,0,3.6-.3.7-.1,1.2-.5,1.6-1.1.3-.8.5-1.7.4-2.5v-26.4c0-.8,0-1.7-.4-2.5-.3-.5-.9-.8-1.5-.9-1.2-.2-2.4-.2-3.6-.2-2-.1-3.9.5-5.4,1.8Z"/>
      <path id="Path_14295" class="st0" d="M253.3,24c.7,1.1,1.6,2,2.7,2.8,1,.7,2.5,1.7,4.3,2.8,2,1.2,3.6,2.2,4.6,3,1.1.8,2.1,1.9,2.8,3,.8,1.3,1.2,2.9,1.2,4.4,0,3.6-2.1,7-5.4,8.5-2,.9-4.2,1.4-6.4,1.3-2.8,0-5.6-.7-8-2-.2,0-.3-.2-.4-.4,0-.2-.1-.5-.1-.7l-.7-7.8c0-.2,0-.2.3-.3.2,0,.3,0,.4.2.5,2.6,1.7,5,3.3,7.1,1.6,2,4,3.1,6.6,3,1.7,0,3.4-.5,4.8-1.6,1.3-1,2-2.7,2-5,0-1.5-.3-3.1-1.1-4.4-.7-1.2-1.6-2.2-2.7-3.1-1.1-.8-2.6-1.8-4.4-2.9-1.5-.9-2.9-1.8-4.3-2.8-1.1-.8-2-1.9-2.7-3-.7-1.3-1.1-2.8-1.1-4.3,0-1.7.5-3.5,1.5-4.9,1-1.3,2.4-2.4,3.9-3,1.6-.7,3.4-1,5.2-1,2.3,0,4.6.4,6.7,1.3.6.2.9.5.9,1l.3,6.6c0,.2,0,.2-.3.2s-.3,0-.4-.2c-.1-1.3-.5-2.5-1.1-3.6-.6-1.3-1.6-2.3-2.7-3.1-1.3-.9-2.8-1.3-4.4-1.3-1.8-.1-3.5.5-4.8,1.9-1.9,2.4-2.1,5.8-.5,8.5h0Z"/>
      <path id="Path_14296" class="st0" d="M316.1,48.7c0,.2,0,.3-.1.3-1.2,0-2.2,0-2.8,0h-4c0,0-4.1,0-4.1,0-.7,0-1.6,0-2.7,0s-.2-.1-.2-.3,0-.3.2-.3c1.1,0,2.2,0,3.3-.3.6-.1,1.1-.5,1.4-1.1.3-.8.4-1.7.4-2.5v-13.4h-21.9v13.3c0,.9,0,1.7.3,2.5.3.6.8,1,1.4,1.1,1.1.2,2.2.3,3.3.3.1,0,.2.1.2.3s0,.3-.2.3c-1.2,0-2.1,0-2.8,0h-4.1c0,0-3.9,0-3.9,0-.7,0-1.7,0-2.8,0,0,0-.1-.1-.1-.3s0-.3.1-.3c1.1,0,2.2,0,3.2-.3.6-.1,1.2-.5,1.4-1.1.3-.8.4-1.7.4-2.5v-26.4c0-.9,0-1.7-.4-2.5-.3-.6-.8-1-1.4-1.1-1-.3-2.1-.4-3.2-.3,0,0-.1-.1-.1-.3s0-.3.1-.3h2.9c1.6.1,2.9.2,3.9.2,1.1,0,2.5,0,4.2-.1h2.7c.1,0,.2,0,.2.3s0,.3-.2.3c-1.1,0-2.2,0-3.2.3-.6.2-1.2.6-1.5,1.2-.3.8-.4,1.7-.4,2.5v11.8h21.9v-11.8c0-.9,0-1.7-.4-2.5-.3-.6-.8-1-1.4-1.2-1.1-.3-2.2-.4-3.3-.3-.1,0-.2-.1-.2-.3s0-.3.2-.3h2.7c1.7.1,3,.2,4.1.2s2.3,0,4-.1h2.8c0,0,.1,0,.1.3s0,.3-.1.3c-1.1,0-2.2,0-3.2.3-.6.1-1.1.5-1.4,1.1-.3.8-.4,1.7-.4,2.5v26.4c0,.9,0,1.7.4,2.5.3.6.8,1,1.4,1.1,1.1.2,2.1.3,3.2.3.1,0,.1,0,.1.3Z"/>
      <path id="Path_14297" class="st0" d="M348.2,40.4c0,0,.2,0,.3,0,0,0,.1,0,.1.1-.4,2.5-.5,5-.5,7.5,0,.4-.2.8-.6.9,0,0-.2,0-.3,0h-23.9c-.1,0-.2-.1-.2-.3s0-.3.2-.3c1.1,0,2.1,0,3.2-.3.6-.1,1.1-.5,1.3-1.1.3-.8.4-1.7.3-2.5v-26.4c0-.9,0-1.7-.3-2.5-.3-.6-.7-1-1.3-1.1-1-.3-2.1-.4-3.2-.3-.1,0-.2-.1-.2-.3s0-.3.2-.3h22.9c.2,0,.5.1.5.4,0,0,0,0,0,.1l.2,7.1c0,0-.1.1-.3.1s-.3,0-.3-.1c0-1.7-.7-3.4-1.9-4.7-1.2-1.1-2.8-1.8-4.4-1.7h-3.5c-1,0-2,0-2.9.3-.6.1-1.1.5-1.3,1.1-.3.8-.4,1.6-.3,2.4v11.6h7c1.4.1,2.7-.2,3.9-.9.9-.8,1.3-1.9,1.2-3.1,0,0,.1-.1.3-.1s.3,0,.3.1v4.6c0,1.1,0,2,0,2.6v2.7c0,.1,0,.2-.3.2s-.3,0-.3-.2c.1-1.3-.3-2.6-1.2-3.6-1.2-.8-2.6-1.2-4.1-1.1h-6.8v13.1c0,.8,0,1.6.3,2.3.2.5.7.9,1.3,1.1.9.2,1.9.3,2.8.3h4.6c1.7,0,3.4-.7,4.5-1.9,1.3-1.5,2.2-3.4,2.5-5.4,0,0,0-.1.2-.1Z"/>
      <path id="Path_14298" class="st0" d="M367.7,49.1c-.6,0-1.2,0-2-.1s-1.7,0-2.6,0h-3.9c-.7,0-1.6.1-2.8.1,0,0-.1-.1-.1-.3s0-.3.1-.3c1.1,0,2.1,0,3.2-.3.6-.1,1.1-.5,1.4-1.1.3-.8.4-1.7.4-2.5v-26.4c0-.9,0-1.7-.4-2.5-.3-.6-.8-1-1.4-1.1-1-.3-2.1-.4-3.2-.3,0,0-.1-.1-.1-.3s0-.3.1-.3h2.8c1.6.1,2.9.2,3.8.2,1.4,0,2.9,0,4.3-.2,1.7,0,2.8-.1,3.5-.1,3.6,0,7.2.7,10.5,2.3,2.9,1.4,5.3,3.5,7.1,6.2,1.7,2.6,2.5,5.7,2.5,8.8,0,3.4-.8,6.8-2.6,9.8-1.7,2.8-4.1,5.1-7,6.6-3,1.5-6.3,2.3-9.7,2.3-1.1,0-2.4,0-3.9-.2ZM379.1,46.5c2.4-1.3,4.3-3.3,5.5-5.6,1.4-2.8,2.1-5.9,2-9,0-3.1-.6-6.2-1.9-9-1.2-2.6-3-4.8-5.3-6.4-2.4-1.6-5.2-2.4-8.1-2.3-1.3,0-2.6,0-3.8.3-.8.1-1.5.5-1.9,1.1-.5.8-.7,1.7-.6,2.6v25.6c-.1,1.3.3,2.6,1.3,3.6.8.7,2.5,1.1,4.8,1.1,2.8,0,5.6-.6,8.1-1.9h0Z"/>
      <path id="Path_14299" class="st1" d="M25.9,50.9c-2-.5-3.7-2-4.4-3.9v2.6h-.8v-2.3c-.8,1.9-2.6,3.2-4.6,3.4-.1,0-.3,0-.3-.2,0,0,0-.1,0-.2,0-2.9,2.5-4.9,5-5.8h0s.8,0,.8,0c2.7.8,5.1,3.1,4.9,6.1,0,.1,0,.2-.2.3h0s0,0,0,0c0,0,0,0-.1,0h0s0,0,0,0Z"/>
      <path id="Path_14300" class="st1" d="M21.5,19.8h-.8c-1.2,0-2.3-.7-3-1.7-.1,0-.2-.2-.2-.4-.7-1.5-1-3.2-.6-4.8,0-.2.3-.3.5-.3,0,0,0,0,0,0,.7.5,1.4.9,2,1.4.4-.7.8-1.4,1.3-2.1.1-.2.3-.2.5-.1,0,0,0,0,.1.1.5.7,1,1.3,1.5,1.9l1.9-1.3c.1,0,.3,0,.4,0,0,0,.1.1.1.2.4,3-.3,6.7-3.8,6.9Z"/>
      <path id="Path_14301" class="st1" d="M20.8,57.5c-1.9-2.3-1.4-5.4-.1-7.8h.8c1.7,2.4,1.9,5.6-.1,7.8,0,0-.1.1-.2.1-.1,0-.2,0-.3-.1Z"/>
      <path id="Path_14302" class="st1" d="M18.1,23.6h.1s0,0,.1,0h0s0,0,0,0c1,.2,1.8.8,2.3,1.7v-5.5h.8v7.8h-.8c-1.7-.4-2.8-1.9-2.8-3.7,0-.1,0-.2.2-.3Z"/>
      <path id="Path_14303" class="st1" d="M34.8,16.7c0-2.3-1-4.4-2.7-5.9L22.2,1.6c-.3-.2-.6-.4-.9-.4-.4,0-.7.1-1,.4l-10,9.2c-1.8,1.5-2.8,3.7-2.8,6v15.6h13.1v-4.8h.8v.2c.6-.9,1.5-1.5,2.6-1.6.1,0,.3,0,.3.2,0,0,0,.1,0,.2-.2,1.7-1.4,3.1-3,3.5v2.3h13.3v-15.6ZM22.8,1l9.9,9.2c1.9,1.6,3,4,3,6.5v15.6h5.5c.2,0,.4.2.4.4,0,.2-.2.4-.4.4,0,0,0,0,0,0h-5.5v13.7c0,8-6.5,14.4-14.4,14.4s-14.5-6.5-14.5-14.4v-13.7H.8c-.2,0-.4-.2-.4-.4s.2-.4.4-.4h5.9v-15.6c0-2.5,1.1-4.9,3.1-6.6L19.8,1c.9-.7,2.2-.7,3,0ZM24.5,44.4c-1.4-.3-2.5-1.2-3.1-2.5v2.6h-.8v-2.4c-.7,1.2-1.9,2.1-3.3,2.2-.1,0-.3,0-.3-.2,0,0,0-.1,0-.2,0-2.1,1.8-3.6,3.7-4.3v-6.4H7.6v13.7c0,7.5,6.1,13.6,13.6,13.6,7.5,0,13.6-6.1,13.6-13.6v-13.7h-13.4v6.4c2.1.5,3.5,2.3,3.5,4.5,0,.1,0,.2-.2.3h0s0,0-.1,0h0s0,0-.1,0h0Z"/>
    </g>
  </g>
  <g>
    <path class="st0" d="M53.2,108.3v-16.8h3.5l4,10.5,4-10.5h3.5v16.8h-3.1v-10.4l-3.2,8.8h-2.3l-3.2-8.8v10.4h-3.1Z"/>
    <path class="st0" d="M94.1,108.3l-1.2-4h-5.3l-1.2,4h-3.4l5.7-16.8h3.1l5.7,16.8h-3.4ZM90.2,95.6l-1.8,5.8h3.6l-1.8-5.8Z"/>
    <path class="st0" d="M115.3,91.5v16.8h-3.1v-16.8h3.1Z"/>
    <path class="st0" d="M140.8,91.5h3.1v16.8h-3.3l-6.2-11.1v11.1h-3.1v-16.8h3.3l6.2,11.1v-11.1Z"/>
    <path class="st0" d="M159.2,94.4v-2.9h12.4v2.9h-4.7v13.9h-3.1v-13.9h-4.7Z"/>
    <path class="st0" d="M186.9,91.5h10.4v2.9h-7.3v3.5h5.8v2.9h-5.8v4.6h7.5v2.9h-10.6v-16.8Z"/>
    <path class="st0" d="M222.5,91.5h3.1v16.8h-3.3l-6.2-11.1v11.1h-3.1v-16.8h3.3l6.2,11.1v-11.1Z"/>
    <path class="st0" d="M251.6,108.3l-1.2-4h-5.3l-1.2,4h-3.4l5.7-16.8h3.1l5.7,16.8h-3.4ZM247.7,95.6l-1.8,5.8h3.6l-1.8-5.8Z"/>
    <path class="st0" d="M279.1,91.5h3.1v16.8h-3.3l-6.2-11.1v11.1h-3.1v-16.8h3.3l6.2,11.1v-11.1Z"/>
    <path class="st0" d="M310.1,97.1c-.7-1.9-2.1-2.9-4.2-2.9s-2.5.5-3.4,1.5c-.9,1-1.3,2.4-1.3,4.2s.5,3.3,1.3,4.2c.9,1,2.1,1.5,3.4,1.5,2,0,3.4-1,4.2-2.9l2.8.7c-.8,3.2-3.3,5.1-7,5.1s-4.1-.8-5.6-2.3c-1.5-1.5-2.3-3.6-2.3-6.3s.8-4.8,2.3-6.3c1.5-1.5,3.4-2.3,5.6-2.3,3.6,0,6.2,1.8,7,5.1l-2.8.7Z"/>
    <path class="st0" d="M328.2,91.5h10.4v2.9h-7.3v3.5h5.8v2.9h-5.8v4.6h7.5v2.9h-10.6v-16.8Z"/>
  </g>
  <line class="st2" x1="15" y1="74.7" x2="375.9" y2="74.7"/>
</svg>